<?xml version="1.0" encoding="utf-8"?><!-- Uploaded to: SVG Repo, www.svgrepo.com, Generator: SVG Repo Mixer Tools -->
<svg fill="#000000" width="800px" height="800px" viewBox="0 0 24 24" id="power-bank" data-name="Line Color" xmlns="http://www.w3.org/2000/svg" class="icon line-color"><polyline id="secondary" points="9 12 10 10 8 10 9 8" style="fill: none; stroke: rgb(44, 169, 188); stroke-linecap: round; stroke-linejoin: round; stroke-width: 2;"></polyline><path id="secondary-2" data-name="secondary" d="M9,17v3a1,1,0,0,0,1,1h8a1,1,0,0,0,1-1V9" style="fill: none; stroke: rgb(44, 169, 188); stroke-linecap: round; stroke-linejoin: round; stroke-width: 2;"></path><path id="primary" d="M14,16V4a1,1,0,0,0-1-1H5A1,1,0,0,0,4,4V16a1,1,0,0,0,1,1h8A1,1,0,0,0,14,16ZM20,5H18V8h2Z" style="fill: none; stroke: rgb(0, 0, 0); stroke-linecap: round; stroke-linejoin: round; stroke-width: 2;"></path></svg>