<?xml version="1.0" encoding="UTF-8" standalone="no"?>
<!-- Uploaded to: SVG Repo, www.svgrepo.com, Generator: SVG Repo Mixer Tools -->

<svg
   fill="#000000"
   height="800px"
   width="800px"
   version="1.1"
   id="Layer_1"
   viewBox="0 0 496 496"
   xml:space="preserve"
   sodipodi:docname="cloud.svg"
   inkscape:version="1.3.2 (091e20e, 2023-11-25, custom)"
   xmlns:inkscape="http://www.inkscape.org/namespaces/inkscape"
   xmlns:sodipodi="http://sodipodi.sourceforge.net/DTD/sodipodi-0.dtd"
   xmlns="http://www.w3.org/2000/svg"
   xmlns:svg="http://www.w3.org/2000/svg"><defs
   id="defs4" /><sodipodi:namedview
   id="namedview4"
   pagecolor="#ffffff"
   bordercolor="#000000"
   borderopacity="0.25"
   inkscape:showpageshadow="2"
   inkscape:pageopacity="0.0"
   inkscape:pagecheckerboard="0"
   inkscape:deskcolor="#d1d1d1"
   inkscape:zoom="0.98375"
   inkscape:cx="400"
   inkscape:cy="424.39644"
   inkscape:window-width="3840"
   inkscape:window-height="2050"
   inkscape:window-x="2676"
   inkscape:window-y="-12"
   inkscape:window-maximized="1"
   inkscape:current-layer="Layer_1" />
<g
   id="g4"
   transform="translate(97.68742,75.628971)"
   style="stroke:#000000;fill:#ff00ff;stroke-width:16.12806;stroke-dasharray:none">
	<g
   id="g3"
   style="stroke:#000000;fill:#ff00ff;stroke-width:16.12806;stroke-dasharray:none">
		<g
   id="g2"
   style="stroke:#000000;fill:#ff00ff;stroke-width:16.12806;stroke-dasharray:none">
			
			<path
   d="M 312,208 C 312,186.256 299.344,166.616 279.96,157.432 278.6,110.088 239.664,72 192,72 158.28,72 128.072,90.928 113.256,120.776 110.192,120.256 107.104,120 104,120 82.24,120 62.592,132.664 53.424,152.056 23.736,153.408 0,177.984 0,208 c 0,30.88 25.128,56 56,56 h 200 c 30.872,0 56,-25.12 56,-56 z m -296,0 c 0,-22.056 17.944,-40 40,-40 0.496,0 0.976,0.04 1.464,0.072 l 6.832,0.416 1.992,-5.704 C 71.904,146.768 87.064,136 104,136 c 3.896,0 7.784,0.576 11.536,1.712 l 6.992,2.104 2.736,-6.768 C 136.336,105.68 162.52,88 192,88 c 39.704,0 72,32.304 72,72 l -0.336,8.344 5.544,1.944 C 285.232,175.904 296,191.064 296,208 c 0,22.056 -17.944,40 -40,40 H 56 C 33.944,248 16,230.056 16,208 Z"
   id="path2"
   style="stroke:#000000;fill:#ff00ff;stroke-width:16.12806;stroke-dasharray:none" />
		</g>
	</g>
</g>
<path
   style="fill:#ffffff;stroke:#000000;stroke-width:26.5443;stroke-linecap:round"
   d="m 237.36738,508.0899 c -17.50918,-3.36931 -34.70947,-19.71368 -39.31577,-37.35934 -6.8135,-26.10093 7.38524,-52.66642 33.28839,-62.28177 5.37998,-1.99707 7.75884,-2.21438 22.46804,-2.05246 l 16.45099,0.1811 1.96237,-5.32175 c 1.07931,-2.92697 2.72788,-7.66441 3.66349,-10.52765 6.33453,-19.38541 22.10776,-32.65852 42.72387,-35.95195 8.29499,-1.32514 15.35678,-0.29135 31.55636,4.61956 6.56535,1.99029 12.15135,3.40436 12.41334,3.14238 0.26198,-0.26198 3.13281,-6.92031 6.37962,-14.79628 3.24681,-7.87597 7.75378,-17.40846 10.01548,-21.18332 13.51202,-22.55199 36.68134,-39.7882 62.7037,-46.64677 8.81644,-2.3237 12.18829,-2.67918 25.41296,-2.67918 13.22467,0 16.59651,0.35548 25.41296,2.67918 38.59228,10.17156 67.98899,41.11025 75.93898,79.92231 1.60033,7.81285 1.91702,12.83554 1.64863,26.14716 l -0.33221,16.47669 11.67017,4.15222 c 13.90129,4.94606 19.43532,8.31297 26.87938,16.35344 25.22356,27.24445 14.29215,70.08993 -21.30852,83.51843 l -6.05933,2.28557 -169.25032,0.14925 C 307.07464,509.00897 240.5026,508.6932 237.36738,508.0899 Z"
   id="path1"
   transform="scale(0.62)" /></svg>
