<?xml version="1.0" encoding="UTF-8"?>
<svg id="Layer_1" xmlns="http://www.w3.org/2000/svg" version="1.1" xmlns:inkscape="http://www.inkscape.org/namespaces/inkscape" xmlns:sodipodi="http://sodipodi.sourceforge.net/DTD/sodipodi-0.dtd" xmlns:svg="http://www.w3.org/2000/svg" viewBox="0 0 410.5 302.2">
  <!-- Generator: Adobe Illustrator 29.3.1, SVG Export Plug-In . SVG Version: 2.1.0 Build 151)  -->
  <defs>
    <style>
      .st0 {
        fill: #fff;
      }

      .st0, .st1, .st2, .st3, .st4 {
        stroke: #fff;
      }

      .st1, .st2, .st3, .st4 {
        fill-rule: evenodd;
      }

      .st2 {
        fill: #00b04c;
      }

      .st3 {
        fill: #034ea2;
      }

      .st4 {
        fill: #ed1c24;
      }
    </style>
  </defs>
  <g id="_x3C_namedview6_x3E_">
    <rect class="st0" x="-25" y="-30.1" width="453" height="355"/>
    <sodipodi:namedview id="namedview6" bordercolor="#000000" borderopacity="0.25" inkscape:current-layer="Layer_1" inkscape:cx="205.25955" inkscape:cy="151.1125" inkscape:deskcolor="#d1d1d1" inkscape:pagecheckerboard="0" inkscape:pageopacity="0.0" inkscape:showpageshadow="2" inkscape:window-height="1001" inkscape:window-maximized="1" inkscape:window-width="1920" inkscape:window-x="-9" inkscape:window-y="-9" inkscape:zoom="2.6040201" pagecolor="#ffffff"/>
  </g>
  <g id="g6">
    <path id="path1" class="st1" d="M9.4,85.6h41c.7-2,1.4-3.9,2.1-5.8H3.6v206.3h404.1V79.8h-33.5c0,1.9,0,3.8-.3,5.8h28v194.7H9.4V85.6Z"/>
    <g id="g3">
      <path id="path2" class="st1" d="M353.1,127.3c-9.7,11.7-21.7,22.1-34,28.3-1.5,1-3.4,1.8-5.5,2.5-8.1.1-18,1.6-26.6,0h-55.6c-27.4-1-46.2-34.6-63.5-68.4-82,8.5-143.7,45.2-143.7,89.1s12.9,38.6,34.6,53.6h112.5c1.1,1.5,2.3,2.8,3.7,4.1h-109.9c33.1,20.4,83.2,33.3,139.4,33.3s106.4-13,139.4-33.3h-109.8c1.1-1.2,2-2.6,2.6-4.1h113.4c21.8-15,34.6-33.6,34.6-53.6s-11.7-36.9-31.6-51.5h0ZM198,176.5l6.1,5.8,6.1-5.8h10.2l-8,10h-16.5l-8-10h10.2-.1ZM132.3,195.1c6.6,0,14.5,1.6,20.6,3.5,2.5.8,4.8,1.6,6.7,2.6,5.1,3.1,8.2,7.4,8.2,12.1,0,9.4-12.1,17-27.1,17s-3.2,0-4.7-.3v.2c-15.6,0-28.7-8.3-32.3-19.5h18.7c0,4.3,8.9,7.9,13.5,7.9s4.5,0,5.4-.1c5.3-.2,8.4-1.8,10.1-3.1.9-.7,1.1-1.8.2-2.8-8-5.5-20.4-1.9-33.9-8.3-5.1-3-8.3-7.1-8.3-11.7,0-8.9,12-16.2,26.9-16.3h.2c7.9,0,15.5,1.7,20.5,4.9,5.9,3.5,9.7,8.8,11.6,14.5h-16.7c-1.1-4.4-4.4-7-10.3-7.6h-9.3c-7.4.5-5.6,6.8,0,6.9h0ZM199.2,208.1c6.6.1,14.5,1.6,20.6,3.5,2.5.7,4.8,1.6,6.7,2.6,5.1,3.1,8.2,7.4,8.2,12.2,0,9.4-12.1,16.9-27.1,16.9s-3.1,0-4.7-.2v.2c-15.6,0-28.7-8.3-32.3-19.5h18.7c0,4.4,8.9,7.9,13.5,7.9s4.5,0,5.4-.1c5.2-.2,8.4-1.8,10.1-3.1.9-.7,1.1-1.8.2-2.8-8-5.5-20.4-1.9-33.9-8.3-5.1-3-8.3-7.1-8.3-11.7,0-8.9,12-16.2,26.9-16.3h.2c7.9,0,15.5,1.7,20.5,4.9,5.9,3.5,9.7,8.8,11.6,14.5h-16.7c-1.1-4.3-4.4-7-10.3-7.6h-9.3c-7.4.5-5.6,6.8,0,6.9h0ZM276.2,231.1h-3.8c-17.9,0-32.4-12.3-32.4-27.4s14.5-27.4,32.4-27.4,32.4,12.3,32.4,27.4-.1,2.6-.3,3.8h-47.1c1.8,6.8,8.6,11.8,16.7,11.8s11.5-2.8,14.5-7.1l17,2.8c-5.1,9.5-16.4,16.1-29.5,16.1h0Z"/>
      <path id="path3" class="st1" d="M272.8,189.5c-6.3,0-11.8,3.3-14.4,8h28.7c-2.6-4.7-8-8-14.4-8h0Z"/>
    </g>
    <path id="path4" class="st3" d="M105.4,85.6h19.4c5.5-29,17.5-52.4,43-64.3,7.7-3.6,9.1-3.6,16.2,1.4,22,15.5,35,45.6,49.5,76.5,9.9,21.1,26.9,44.2,45,55.7,9.7,6.1,27,4,35.1,3.2-25.4-5.1-43.8-37.5-59.2-62.8-28.6-46.9-53.7-83.3-77.5-82.1-32.9-.7-65.8,34.1-71.5,72.3M374.2,79.8h-23.7c-.2,10.4-3.9,19.4-7.8,27.8-8.2,17.5-22,31.4-40.9,42l.5.4c3.8,2.2,7.7,3.9,11.9,4.7l4.8.9c28.4-14.3,55.6-50.7,55.1-75.8h.1Z"/>
    <path id="path5" class="st4" d="M153.9,32.8c2.9,3,5.8,6.4,8.4,10.3,9.3,13.5,19.1,31.7,29.5,50.6,18.6,33.9,35.8,55.2,58.5,64.4-9.8,1.7-22.7,1.1-32.1-3.1-32.4-14.5-52.1-75.6-74.9-110.6,3-4.2,6.5-8.1,10.6-11.5M72.1,85.6h-21.6C63.7,47.4,83.9,21.2,114.8,14c6.5-1.5,16.4-.7,23-.7-31.1,8.5-54.9,32.6-65.8,72.3h0ZM321.2,79.8h-20.8c-2.4,20.4-10.1,33.5-23.3,44.6,2.8,3.9,5.9,7.9,9.2,11.6,13.3-10.5,24.8-24,30.7-37.5,2.8-6.4,3.8-12.8,4.2-18.8h0Z"/>
    <path id="path6" class="st2" d="M160.8,27.7l10-6.4c6.9,4.6,14.4,12.2,21.5,22.5,9.3,13.5,18.9,31,29.3,50,18.6,33.9,37,55.1,59.6,64.3-6.8,1.3-13.9,1.3-21.3.3-45.1-6.1-67.5-101.9-99.3-130.7M346.3,79.8h-21.6c-.1,7-2.2,12.7-4.2,18.8-5.5,16.7-16.2,29.4-31.6,40.4,3.1,3.3,6.5,6.3,10.1,8.8,24.9-15.7,47.7-45.1,47.3-67.9h0ZM100.6,85.6h-21.6c9.4-36.8,31.8-63.8,64.4-71.6,6.5-1.5,13.5-.7,20.2-.7-31.1,8.5-52,32.6-62.9,72.3h0Z"/>
  </g>
</svg>