<?xml version="1.0" encoding="UTF-8"?>
<svg id="Layer_1" data-name="Layer 1" xmlns="http://www.w3.org/2000/svg" viewBox="0 0 737.01 283.41">
  <defs>
    <style>
      .cls-1 {
        fill: #1d1d1b;
      }

      .cls-2 {
        fill: #66a7d7;
      }
    </style>
  </defs>
  <path class="cls-1" d="M225.07,235.83c0,5.47-4.44,9.91-9.91,9.91s-9.91-4.44-9.91-9.91,4.44-9.91,9.91-9.91,9.91,4.43,9.91,9.91"/>
  <path class="cls-1" d="M98.99,152.45c0,5.47-4.44,9.91-9.91,9.91s-9.91-4.44-9.91-9.91,4.44-9.91,9.91-9.91,9.91,4.43,9.91,9.91"/>
  <path class="cls-1" d="M243.06,50.87c0,5.47-4.44,9.91-9.91,9.91s-9.91-4.44-9.91-9.91,4.44-9.91,9.91-9.91,9.91,4.43,9.91,9.91"/>
  <path class="cls-1" d="M173.02,217.7c0,5.46-4.44,9.91-9.91,9.91s-9.91-4.44-9.91-9.91,4.45-9.91,9.91-9.91,9.91,4.43,9.91,9.91"/>
  <polyline class="cls-2" points="200.97 171.95 180.01 117.05 185.61 117.05 201.01 160.5 217.24 117.05 222.6 117.05 200.97 171.95"/>
  <path class="cls-2" d="M228.88,125.46c0-.99.34-1.81,1.01-2.46.67-.64,1.48-.97,2.43-.97s1.77.32,2.46.97c.7.65,1.05,1.47,1.05,2.46s-.34,1.75-1.01,2.42c-.67.68-1.5,1.01-2.5,1.01s-1.82-.33-2.47-1.01c-.65-.67-.97-1.48-.97-2.42h0ZM230.11,170.56v-32.43h4.5v32.43h-4.5"/>
  <path class="cls-2" d="M245.66,164.79l4.26-2.46c1.49,3.64,4.16,5.45,8,5.45,1.89,0,3.4-.48,4.52-1.46,1.12-.97,1.68-2.26,1.68-3.85,0-1.95-.87-3.44-2.62-4.49-.15-.1-2.32-1.02-6.51-2.77-5.19-2.14-7.78-5.11-7.78-8.89,0-2.74.97-5,2.92-6.77,1.95-1.77,4.47-2.66,7.57-2.66,5.39,0,8.99,2.19,10.79,6.58l-4.11,2.32c-1.1-3.15-3.42-4.72-6.96-4.72-1.55,0-2.83.46-3.85,1.38-1.02.92-1.53,2.05-1.53,3.4,0,1.49.65,2.72,1.95,3.66,1.05.75,2.96,1.6,5.75,2.55,3.19,1.1,5.43,2.27,6.73,3.51,1.55,1.55,2.32,3.74,2.32,6.58s-1.05,5.31-3.15,7.1c-2.09,1.8-4.96,2.69-8.61,2.69-5.79,0-9.57-2.38-11.37-7.16"/>
  <path class="cls-2" d="M307.8,154.47h-25.71c.05,4.2,1.09,7.49,3.14,9.88,2.04,2.4,4.69,3.6,7.92,3.6,4.69,0,8.27-2.6,10.77-7.79l4.11,2.23c-3.19,6.37-8.16,9.56-14.89,9.56-4.74,0-8.58-1.61-11.53-4.81-2.94-3.22-4.41-7.37-4.41-12.45s1.47-9.61,4.41-12.85c2.94-3.24,6.74-4.86,11.38-4.86s8.02,1.49,10.74,4.45c2.72,2.97,4.08,6.94,4.08,11.92v1.12h0ZM302.48,150.63c-.2-2.98-1.19-5.28-2.96-6.89-1.77-1.62-4.15-2.43-7.15-2.43-2.64,0-4.92.86-6.81,2.57-1.89,1.71-2.97,3.96-3.22,6.74h20.14"/>
  <path class="cls-2" d="M347.44,138.13v27.05c0,7.54-.5,12.39-1.5,14.53-2.25,4.79-6.88,7.19-13.92,7.19-8.53,0-13.35-3.38-14.44-10.13l5.61.15c.75,3.98,3.82,5.98,9.21,5.98,4.29,0,7.28-1.33,8.98-3.98,1.05-1.6,1.57-4.01,1.57-7.21v-7.13c-.99,2.28-2.54,4.09-4.64,5.4-2.09,1.31-4.46,1.97-7.11,1.97-4.44,0-8.04-1.55-10.81-4.67-2.77-3.12-4.15-7.38-4.15-12.82s1.38-9.51,4.15-12.7c2.77-3.18,6.45-4.78,11.04-4.78,2.6,0,4.94.68,7.04,2.05,2.1,1.37,3.59,3.09,4.49,5.18v-6.09h4.5ZM331.97,141.07c-3.39,0-6.04,1.19-7.96,3.59-1.92,2.39-2.87,5.69-2.87,9.87s.92,7.45,2.76,9.77c1.84,2.32,4.39,3.48,7.62,3.48s6.07-1.21,8.22-3.62c2.14-2.42,3.21-5.75,3.21-9.99s-.98-7.36-2.95-9.65c-1.97-2.3-4.64-3.44-8.03-3.44"/>
  <path class="cls-2" d="M364.78,144.67c1.65-2.79,3.24-4.76,4.79-5.93,1.55-1.17,3.44-1.75,5.69-1.75,1.3,0,2.57.22,3.82.68l-1.42,4.24c-1.05-.33-2.07-.5-3.07-.5-2.59,0-4.86,1.2-6.81,3.59-1.99,2.6-3,5.81-3,9.65v15.92h-4.49v-32.43h4.49v6.54"/>
  <path class="cls-2" d="M409.52,170.56v-5.91c-2.14,4.87-5.94,7.3-11.38,7.3-4.64,0-8.38-1.6-11.23-4.78-2.85-3.18-4.27-7.4-4.27-12.62s1.41-9.4,4.23-12.66c2.82-3.27,6.42-4.9,10.82-4.9,5.64,0,9.58,2.36,11.83,7.08v-5.94h4.49v32.43h-4.49ZM387.63,154.69c0,4.19.95,7.42,2.84,9.69,1.89,2.27,4.59,3.4,8.07,3.4s6-1.22,8-3.67c2-2.44,2.99-5.86,2.99-10.25,0-3.99-.98-7.12-2.95-9.39-1.97-2.27-4.62-3.4-7.96-3.4s-6,1.21-8,3.63c-2,2.42-2.99,5.75-2.99,9.99"/>
  <path class="cls-2" d="M449.03,170.56v-5.91c-2.2,4.87-5.99,7.3-11.38,7.3-4.64,0-8.39-1.6-11.23-4.78-2.84-3.18-4.26-7.4-4.26-12.62s1.41-9.4,4.23-12.66c2.82-3.27,6.42-4.9,10.82-4.9,5.54,0,9.48,2.36,11.83,7.08v-30.2h4.5v56.7h-4.5ZM427.13,154.69c0,4.19.95,7.42,2.85,9.69,1.9,2.27,4.59,3.4,8.09,3.4s6.01-1.22,7.98-3.67c1.97-2.44,2.96-5.86,2.96-10.25,0-3.99-.98-7.12-2.92-9.39-1.95-2.27-4.6-3.4-7.95-3.4s-6.02,1.21-8.02,3.63c-2,2.42-3,5.75-3,9.99"/>
  <polyline class="cls-2" points="490.11 170.52 490.11 117.01 516.6 117.01 516.6 121.59 495.01 121.59 495.01 138.33 515.78 138.33 515.78 142.91 495.01 142.91 495.01 170.52 490.11 170.52"/>
  <path class="cls-2" d="M529.42,138.09v16.17c0,4.74.65,8.12,1.95,10.11,1.39,2.25,3.81,3.37,7.25,3.37s5.93-1.12,7.32-3.37c1.3-2.04,1.95-5.41,1.95-10.11v-16.17h4.49v18.49c0,10.23-4.56,15.34-13.69,15.34s-13.76-5.11-13.76-15.34v-18.49h4.49"/>
  <path class="cls-2" d="M565.12,170.52v-32.43h4.25v5.04c2.64-4.13,6.46-6.19,11.45-6.19,3.64,0,6.5,1.01,8.57,3.03,2.07,2.02,3.11,4.87,3.11,8.56v21.99h-4.49v-19.99c0-6.39-2.79-9.59-8.37-9.59-6.68,0-10.02,4.22-10.02,12.65v16.92h-4.49"/>
  <path class="cls-2" d="M629.05,170.52v-5.91c-2.2,4.87-5.99,7.3-11.38,7.3-4.64,0-8.39-1.59-11.23-4.78-2.85-3.19-4.27-7.4-4.27-12.63s1.41-9.4,4.23-12.66c2.82-3.26,6.43-4.9,10.82-4.9,5.54,0,9.48,2.36,11.83,7.08v-30.2h4.5v56.7h-4.5ZM607.16,154.65c0,4.18.95,7.42,2.85,9.69,1.9,2.27,4.6,3.4,8.09,3.4s6.01-1.22,7.99-3.66c1.97-2.44,2.96-5.86,2.96-10.25,0-3.99-.97-7.12-2.92-9.4-1.95-2.26-4.6-3.4-7.95-3.4s-6.02,1.21-8.02,3.63c-2,2.42-3,5.75-3,9.99"/>
</svg>